<?xml version="1.0" encoding="UTF-8" standalone="no"?>
<!-- Created with Inkscape (http://www.inkscape.org/) -->

<svg
   xmlns:dc="http://purl.org/dc/elements/1.1/"
   xmlns:cc="http://creativecommons.org/ns#"
   xmlns:rdf="http://www.w3.org/1999/02/22-rdf-syntax-ns#"
   xmlns:svg="http://www.w3.org/2000/svg"
   xmlns="http://www.w3.org/2000/svg"
   xmlns:sodipodi="http://sodipodi.sourceforge.net/DTD/sodipodi-0.dtd"
   xmlns:inkscape="http://www.inkscape.org/namespaces/inkscape"
   width="210mm"
   height="297mm"
   viewBox="0 0 210 297"
   version="1.1"
   id="svg1180"
   inkscape:version="0.92.3 (2405546, 2018-03-11)"
   sodipodi:docname="wheels.svg">
  <defs
     id="defs1174" />
  <sodipodi:namedview
     id="base"
     pagecolor="#ffffff"
     bordercolor="#666666"
     borderopacity="1.0"
     inkscape:pageopacity="0.0"
     inkscape:pageshadow="2"
     inkscape:zoom="0.7"
     inkscape:cx="255.76829"
     inkscape:cy="512.45228"
     inkscape:document-units="mm"
     inkscape:current-layer="layer1"
     showgrid="false"
     inkscape:window-width="1920"
     inkscape:window-height="1053"
     inkscape:window-x="0"
     inkscape:window-y="27"
     inkscape:window-maximized="1" />
  <metadata
     id="metadata1177">
    <rdf:RDF>
      <cc:Work
         rdf:about="">
        <dc:format>image/svg+xml</dc:format>
        <dc:type
           rdf:resource="http://purl.org/dc/dcmitype/StillImage" />
        <dc:title></dc:title>
      </cc:Work>
    </rdf:RDF>
  </metadata>
  <g
     inkscape:label="Layer 1"
     inkscape:groupmode="layer"
     id="layer1">
    <path
       inkscape:connector-curvature="0"
       id="path874"
       style="color:#000000;display:inline;overflow:visible;visibility:visible;fill:none;fill-opacity:1;stroke:#ff0000;stroke-width:0.001;stroke-linecap:butt;stroke-linejoin:miter;stroke-miterlimit:4;stroke-dasharray:none;stroke-dashoffset:0;stroke-opacity:1;marker:none;enable-background:accumulate"
       d="m 81.54398,253.80459 c -1.52288,0.16008 -3.02627,0.5257 -4.46588,1.07643 l 0.15916,0.40773 c -1.38807,0.53096 -2.71697,1.2406 -3.94652,2.13579 l -0.25219,-0.35398 c -1.21619,0.88466 -2.34546,1.93428 -3.33674,3.15846 l 0.34313,0.27802 c -0.96524,1.19201 -1.73834,2.47246 -2.33526,3.80958 l -0.40514,-0.17828 c -0.63484,1.42156 -1.06506,2.9041 -1.30225,4.40696 l 0.43253,0.0708 c -0.23539,1.48619 -0.27047,2.9937 -0.1142,4.48035 l -0.43615,0.046 c 0.16046,1.52637 0.51837,3.02895 1.07125,4.47156 l 0.40773,-0.15917 c 0.53037,1.38483 1.24641,2.70199 2.1394,3.92893 l -0.35863,0.2584 c 0.88471,1.21612 1.93474,2.34549 3.15898,3.33674 h 5.3e-4 l 0.27801,-0.34313 c 1.19286,0.96594 2.48225,1.73714 3.82045,2.33424 l -0.17829,0.40513 c 1.41938,0.63308 2.89529,1.06649 4.3956,1.30327 l 0.0713,-0.432 c 1.48639,0.23414 2.99425,0.26995 4.48087,0.11368 l 0.0455,0.43669 c 1.52635,-0.16048 3.02946,-0.51893 4.472077,-1.0718 l -0.15865,-0.40773 c 1.38537,-0.53176 2.71213,-1.24714 3.93981,-2.14093 l 0.25838,0.35912 c 1.21323,-0.88349 2.33618,-1.93585 3.32539,-3.15742 l -0.34314,-0.27852 c 0.96525,-1.19199 1.74349,-2.47811 2.34043,-3.81528 l 0.39842,0.17312 c 0.634233,-1.42218 1.066953,-2.9037 1.303283,-4.40696 l -0.43305,-0.0708 c 0.23257,-1.48428 0.27591,-2.99082 0.11989,-4.47516 l 0.43667,-0.0455 c -0.16015,-1.52347 -0.51919,-3.02112 -1.070223,-4.46122 l -0.41806,0.16071 c -0.52961,-1.38388 -1.23275,-2.70981 -2.12442,-3.93621 l 0.34778,-0.25733 c -0.88469,-1.21624 -1.9348,-2.3454 -3.15898,-3.33677 l -0.27802,0.34367 c -1.19285,-0.96598 -2.4766,-1.74335 -3.81477,-2.34044 l 0.17777,-0.40515 c -1.420047,-0.63265 -2.906067,-1.06614 -4.406937,-1.30225 l -0.0703,0.44338 c -1.4854,-0.23449 -2.98518,-0.28321 -4.47053,-0.1271 z m -0.1571,2.50373 h 3.99872 v 1.99832 h -3.99872 z m -4.82761,3.18637 4.50722,7.81297 c -1.48183,0.85563 -2.3046,2.40371 -2.30426,3.99923 l -9.0196,0.003 h -5.3e-4 c 0.002,-4.7085 2.44479,-9.29093 6.81716,-11.81529 z m 13.637407,0.006 c 2.00653,1.15602 3.75071,2.83486 4.99194,4.9847 1.24122,2.14982 1.82264,4.49935 1.82056,6.81509 l -9.020637,0.002 c -2.6e-4,-0.7828 -0.19468,-1.5788 -0.61443,-2.30582 -0.41975,-0.72702 -1.01202,-1.29405 -1.68982,-1.68569 z m -6.859527,10.30015 c 0.53144,-0.0138 1.05335,0.25641 1.3379,0.7493 0.0526,0.0911 0.0943,0.1855 0.12609,0.28163 l -1.11672,1.93426 c -0.61687,0.1293 -1.27276,-0.14174 -1.60508,-0.71729 -0.41387,-0.71689 -0.16865,-1.63353 0.54829,-2.04739 0.22405,-0.12936 0.46796,-0.19424 0.70952,-0.20051 z m 2.34714,5.502 4.508247,7.80932 c -4.372327,2.52371 -9.559037,2.34919 -13.637917,-0.003 l 4.51032,-7.79952 c 1.38078,0.79518 3.13933,0.84785 4.61935,-0.007 z m -14.56603,0.7653 1.99936,3.46281 -1.73065,0.99944 -1.99936,-3.46281 z m 24.517877,0 1.73013,0.99944 -1.99937,3.46281 -1.73064,-0.9989 z" />
    <path
       inkscape:connector-curvature="0"
       style="color:#000000;display:inline;overflow:visible;visibility:visible;fill:none;fill-opacity:1;stroke:#ff0000;stroke-width:0.001;stroke-linecap:butt;stroke-linejoin:miter;stroke-miterlimit:4;stroke-dasharray:none;stroke-dashoffset:0;stroke-opacity:1;marker:none;enable-background:accumulate"
       d="m -23.057103,253.8001 c -1.314825,0.0186 -2.644595,0.18556 -3.974951,0.51729 l 0.10025,0.42426 c -1.481463,0.36935 -2.86127,0.93046 -4.136697,1.63607 l -0.216008,-0.38549 c -1.352643,0.74866 -2.580217,1.6665 -3.666443,2.71662 l 0.301274,0.30903 c -1.075852,1.04058 -2.005087,2.22132 -2.770889,3.49592 l -0.378275,-0.22378 c -0.786328,1.30864 -1.397196,2.71394 -1.82159,4.19095 l 0.417028,0.11577 c -0.408,1.41859 -0.631423,2.90438 -0.656291,4.41473 l -0.439766,-0.007 c -0.02439,1.49278 0.139014,3.01334 0.517281,4.53051 l 0.424262,-0.10801 c 0.369081,1.48043 0.923917,2.86972 1.628841,4.14444 l -0.378269,0.21604 c 0.750152,1.35509 1.671558,2.57875 2.72438,3.66643 l 0.316259,-0.3013 c 1.039416,1.07383 2.208319,2.01405 3.480925,2.77868 l -0.223758,0.37047 c 1.306168,0.78483 2.709269,1.39726 4.183208,1.8216 l 0.123504,-0.42477 c 1.416418,0.40776 2.89169,0.63833 4.399733,0.66404 v 0.43203 c 1.495769,0.0251 3.01785,-0.12985 4.538222,-0.50902 l -0.108003,-0.42477 c 1.481447,-0.36937 2.869033,-0.93043 4.144452,-1.6361 l 0.216006,0.38602 c 1.352711,-0.74935 2.588133,-1.66624 3.674197,-2.71712 l -0.309028,-0.32402 c 1.0747092,-1.0399 2.0057273,-2.19975 2.7708943,-3.47317 l 0.37827,0.22375 c 0.78451,-1.30567 1.389523,-2.71757 1.813843,-4.19094 l -0.417029,-0.12355 c 0.409157,-1.42065 0.63912,-2.902 0.664044,-4.41475 l 0.432014,0.0156 c 0.02527,-1.4958 -0.130458,-3.01787 -0.509529,-4.53822 l -0.424265,0.10024 c -0.369136,-1.48045 -0.923927,-2.86255 -1.628841,-4.13721 l 0.386024,-0.20825 c -0.749297,-1.35532 -1.672465,-2.58555 -2.7243853,-3.67369 l -0.316256,0.30077 c -1.040633,-1.07589 -2.214156,-2.01287 -3.48868,-2.77862 l 0.223758,-0.37053 c -1.308632,-0.78633 -2.713937,-1.40451 -4.190957,-1.82883 l -0.123505,0.42426 c -1.417622,-0.40786 -2.89044,-0.63065 -4.399732,-0.65577 l 0.0078,-0.44029 c -0.186976,-0.003 -0.375444,-0.003 -0.563275,0 z m -1.744596,2.49756 h 3.998722 v 1.68461 a 13.499477,13.499477 0 0 1 4.744931,1.64589 13.499477,13.499477 0 0 1 5.801714,16.629 l 1.4381513,0.82993 -1.9993613,3.46284 -1.442805,-0.83304 a 13.499477,13.499477 0 0 1 -17.297137,3.2928 13.499477,13.499477 0 0 1 -3.814236,-3.29124 l -1.440222,0.83199 -1.999361,-3.46335 1.440222,-0.83148 a 13.499477,13.499477 0 0 1 0.8723,-11.68664 13.499477,13.499477 0 0 1 9.697082,-6.58772 z"
       id="path934-3" />
    <path
       style="color:#000000;display:inline;overflow:visible;visibility:visible;fill:none;fill-opacity:1;stroke:#ff0000;stroke-width:0.001;stroke-linecap:butt;stroke-linejoin:miter;stroke-miterlimit:4;stroke-dasharray:none;stroke-dashoffset:0;stroke-opacity:1;marker:none;enable-background:accumulate"
       d="m 117.04209,253.80459 c -1.52288,0.16007 -3.02627,0.52569 -4.46588,1.07642 l 0.15916,0.40773 c -1.38807,0.53097 -2.71697,1.24059 -3.94653,2.1358 l -0.25218,-0.35399 c -1.21619,0.88465 -2.34546,1.93429 -3.33675,3.15846 l 0.34314,0.27802 c -0.96524,1.19202 -1.73833,2.47246 -2.33526,3.80957 l -0.40514,-0.17825 c -0.63484,1.42156 -1.06506,2.9041 -1.30225,4.40693 l 0.43253,0.0708 c -0.23539,1.48619 -0.27048,2.99371 -0.1142,4.48035 l -0.43615,0.046 c 0.16045,1.52638 0.51837,3.02896 1.07125,4.47157 l 0.40773,-0.15917 c 0.53037,1.38483 1.24641,2.70199 2.1394,3.92895 l -0.35863,0.25838 c 0.88471,1.21615 1.93474,2.34549 3.15898,3.33674 h 5.3e-4 l 0.27802,-0.34313 c 1.19285,0.96594 2.48225,1.73714 3.82044,2.33424 l -0.17829,0.40513 c 1.41939,0.63308 2.8953,1.06651 4.3956,1.30327 l 0.0713,-0.432 c 1.4864,0.23416 2.99425,0.26995 4.48087,0.11368 l 0.0455,0.43669 c 1.52635,-0.16048 3.02946,-0.51893 4.47208,-1.0718 l -0.15865,-0.4077 c 1.38538,-0.53179 2.71213,-1.24714 3.93982,-2.14097 l 0.25838,0.35916 c 1.21322,-0.8835 2.33617,-1.93585 3.32538,-3.15745 l -0.34313,-0.27852 c 0.96525,-1.19199 1.74348,-2.47811 2.34042,-3.81525 l 0.39843,0.17311 c 0.63423,-1.4222 1.06694,-2.90372 1.30328,-4.40698 l -0.43306,-0.0708 c 0.23258,-1.48429 0.27591,-2.99083 0.1199,-4.47516 l 0.43666,-0.0455 c -0.16015,-1.52348 -0.51919,-3.02112 -1.07021,-4.46124 l -0.41807,0.16072 c -0.52961,-1.38387 -1.23275,-2.70981 -2.12441,-3.93621 l 0.34778,-0.25733 c -0.88472,-1.21623 -1.93483,-2.3454 -3.159,-3.33676 l -0.27803,0.34366 c -1.19281,-0.96594 -2.47657,-1.74332 -3.81474,-2.34039 l 0.17777,-0.40516 c -1.42005,-0.63265 -2.90607,-1.06615 -4.40694,-1.30225 l -0.0703,0.4434 c -1.4854,-0.2345 -2.98518,-0.28321 -4.47053,-0.12712 z m -0.1571,2.50373 h 3.99872 v 1.9983 h -3.99872 z m -4.82761,3.18637 4.50722,7.81296 c -1.48183,0.85564 -2.3046,2.40371 -2.30426,3.99923 l -9.0196,0.003 h -5.3e-4 c 0.002,-4.70851 2.44479,-9.29093 6.81716,-11.81529 z m 13.63741,0.006 c 2.00653,1.15601 3.75071,2.83484 4.99194,4.9847 1.24122,2.14983 1.82264,4.49934 1.82057,6.81508 l -9.02065,0.002 c -2.6e-4,-0.78279 -0.19468,-1.57879 -0.61443,-2.30581 -0.41975,-0.72701 -1.01201,-1.29406 -1.68982,-1.68569 z m -6.85953,10.29979 c 0.53144,-0.0138 1.05336,0.25641 1.3379,0.7493 0.0526,0.0911 0.0943,0.1855 0.12609,0.28162 l -1.11673,1.93426 c -0.61686,0.12931 -1.27275,-0.14173 -1.60507,-0.71728 -0.41387,-0.71689 -0.16865,-1.63354 0.54829,-2.0474 0.22405,-0.12936 0.46795,-0.19423 0.70952,-0.2005 z m 2.34714,5.50197 4.50826,7.80935 c -4.37234,2.52371 -9.55905,2.34919 -13.63793,-0.003 l 4.51032,-7.79952 c 1.38078,0.79519 3.13933,0.84785 4.61935,-0.007 z m -14.56603,0.76534 1.99936,3.46283 -1.73064,0.99944 -1.99937,-3.46284 z m 24.51788,0 1.73013,0.99943 -1.99936,3.46284 -1.73065,-0.99893 z"
       id="path874-5"
       inkscape:connector-curvature="0" />
    <path
       inkscape:connector-curvature="0"
       id="path874-6"
       style="color:#000000;display:inline;overflow:visible;visibility:visible;fill:none;fill-opacity:1;stroke:#ff0000;stroke-width:0.001;stroke-linecap:butt;stroke-linejoin:miter;stroke-miterlimit:4;stroke-dasharray:none;stroke-dashoffset:0;stroke-opacity:1;marker:none;enable-background:accumulate"
       d="m 166.65767,276.06731 1.73013,0.99994 -1.99936,3.46284 -1.73064,-0.99893 z m -24.51788,0 1.99936,3.46284 -1.73064,0.99994 -1.99936,-3.46284 z m 14.56604,-0.76533 v 0 l 4.50825,7.80931 c -4.37233,2.52372 -9.55904,2.34917 -13.63793,-0.003 l 4.51032,-7.79949 c 1.38079,0.79513 3.13933,0.84737 4.61936,-0.007 z m -2.30367,-5.5011 c 0.82825,0 1.4998,0.67153 1.49979,1.4998 0,0.82822 -0.67155,1.49977 -1.49979,1.49977 -0.82824,0 -1.49979,-0.67155 -1.49979,-1.49977 -1e-5,-0.82827 0.67154,-1.4998 1.49979,-1.4998 z m 6.81605,-10.30051 c 2.00653,1.15599 3.75071,2.83485 4.99195,4.98469 1.24121,2.14982 1.82263,4.49938 1.82056,6.81509 l -9.02064,0.002 c -2.6e-4,-0.78277 -0.19469,-1.57877 -0.61443,-2.30582 -0.41975,-0.72699 -1.01202,-1.29402 -1.68982,-1.68569 z m -13.63741,-0.006 4.50722,7.81296 c -1.48182,0.85564 -2.30459,2.40371 -2.30425,3.99923 l -9.0196,0.003 h -5.3e-4 c 0.002,-4.7085 2.44478,-9.29093 6.81715,-11.81529 z m 4.82762,-3.18638 h 3.99872 v 1.99832 h -3.99872 z m 0.15709,-2.50373 c -1.52287,0.16008 -3.02627,0.5257 -4.46587,1.07643 l 0.15916,0.40773 c -1.38807,0.53096 -2.71697,1.24058 -3.94653,2.13579 l -0.25218,-0.35398 c -1.21619,0.88463 -2.34547,1.93429 -3.33675,3.15846 l 0.34313,0.278 c -0.96523,1.19202 -1.73833,2.47248 -2.33525,3.8096 l -0.40515,-0.17827 c -0.63483,1.42152 -1.06505,2.90412 -1.30224,4.40695 l 0.43253,0.0708 c -0.23539,1.48617 -0.27048,2.99368 -0.11421,4.48035 l -0.43615,0.046 c 0.16046,1.52638 0.51838,3.02896 1.07126,4.47157 l 0.40772,-0.15918 c 0.53038,1.38487 1.24641,2.70203 2.13941,3.92896 l -0.35864,0.25838 c 0.88472,1.21615 1.93475,2.34549 3.15898,3.33674 h 5.3e-4 l 0.27802,-0.3431 c 1.19286,0.9659 2.48225,1.73711 3.82044,2.3342 l -0.17828,0.40516 c 1.41939,0.63305 2.89529,1.06649 4.3956,1.30327 l 0.0713,-0.43202 c 1.48639,0.23419 2.99425,0.26995 4.48086,0.11368 l 0.0455,0.43668 c 1.52635,-0.1605 3.02946,-0.51892 4.47208,-1.07179 l -0.15865,-0.4077 c 1.38537,-0.53179 2.71213,-1.24714 3.93981,-2.14097 l 0.25838,0.35916 c 1.21322,-0.8835 2.33618,-1.93588 3.32538,-3.15745 l -0.34313,-0.27852 c 0.96525,-1.19203 1.74349,-2.47808 2.34043,-3.81528 l 0.39842,0.17314 c 0.63423,-1.4222 1.06694,-2.90373 1.30328,-4.40699 l -0.43305,-0.0708 c 0.23257,-1.48431 0.27591,-2.99085 0.11989,-4.47518 l 0.43667,-0.0455 c -0.16015,-1.52345 -0.51919,-3.02109 -1.07022,-4.46122 l -0.41806,0.16071 c -0.52962,-1.38388 -1.23276,-2.70979 -2.12443,-3.93618 l 0.34778,-0.25736 c -0.88469,-1.21624 -1.93481,-2.34538 -3.15898,-3.33674 l -0.27802,0.34364 c -1.19278,-0.96594 -2.47655,-1.74337 -3.81472,-2.34043 l 0.17777,-0.40513 c -1.42008,-0.63267 -2.90611,-1.06614 -4.40697,-1.30225 l -0.0703,0.44339 c -1.48537,-0.2345 -2.98515,-0.28324 -4.47051,-0.12713 z" />
    <path
       inkscape:connector-curvature="0"
       style="color:#000000;display:inline;overflow:visible;visibility:visible;fill:none;fill-opacity:1;stroke:#ff0000;stroke-width:0.001;stroke-linecap:butt;stroke-linejoin:miter;stroke-miterlimit:4;stroke-dasharray:none;stroke-dashoffset:0;stroke-opacity:1;marker:none;enable-background:accumulate"
       d="m 12.688773,253.80014 c -1.314826,0.0186 -2.644596,0.18557 -3.9749523,0.51729 l 0.10025,0.42426 c -1.481463,0.36935 -2.86127,0.93046 -4.136697,1.63607 l -0.216005,-0.38548 c -1.352646,0.74865 -2.580217,1.66649 -3.66644304,2.71661 l 0.30127104,0.30904 c -1.07585204,1.04058 -2.00508744,2.22131 -2.7708894,3.49591 l -0.378272,-0.22377 c -0.786331,1.30863 -1.397199,2.71393 -1.821593,4.19094 l 0.417028,0.11577 c -0.408,1.41859 -0.631422,2.90437 -0.656291,4.41472 l -0.439766,-0.007 c -0.02439,1.49278 0.139017,3.01334 0.517281,4.53048 l 0.424262,-0.10801 c 0.369081,1.48043 0.923917,2.86972 1.628844,4.14444 l -0.378272,0.21604 c 0.750152,1.35512 1.67155796,2.57875 2.72438336,3.66643 l 0.316256,-0.30127 c 1.03941604,1.0738 2.20831904,2.01402 3.48092504,2.77865 l -0.223758,0.3705 c 1.306171,0.7848 2.70927,1.39723 4.183208,1.8216 l 0.123507,-0.4248 c 1.416415,0.40776 2.8916873,0.63833 4.3997303,0.66407 v 0.432 c 1.495772,0.0251 3.017851,-0.12982 4.538226,-0.50899 L 17.073,287.8608 c 1.481447,-0.36937 2.869034,-0.9304 4.144452,-1.63607 l 0.216006,0.38602 c 1.352714,-0.74938 2.588133,-1.66624 3.674202,-2.71715 l -0.30903,-0.32399 c 1.07471,-1.03993 2.00572,-2.19975 2.77089,-3.4732 l 0.37827,0.22375 c 0.78451,-1.30565 1.38953,-2.71755 1.81384,-4.19094 l -0.41702,-0.12351 c 0.40916,-1.42062 0.63912,-2.90197 0.66404,-4.41472 l 0.43202,0.0156 c 0.0253,-1.4958 -0.13046,-3.01787 -0.50954,-4.53821 l -0.42426,0.10024 c -0.36913,-1.48045 -0.92393,-2.86255 -1.62884,-4.1372 l 0.38602,-0.20826 c -0.74929,-1.35531 -1.67246,-2.58555 -2.72438,-3.67369 l -0.31626,0.30077 c -1.040632,-1.07589 -2.214154,-2.01287 -3.488679,-2.77862 l 0.223761,-0.37053 c -1.308635,-0.78633 -2.71394,-1.40451 -4.190958,-1.82883 l -0.123507,0.42427 c -1.417622,-0.40787 -2.890441,-0.63066 -4.399733,-0.65578 l 0.0078,-0.44029 c -0.186976,-0.003 -0.375444,-0.003 -0.563274,0 z m -1.744597,2.49756 h 3.998722 v 1.68461 a 13.499477,13.499477 0 0 1 4.744932,1.64589 13.499477,13.499477 0 0 1 5.80171,16.62899 l 1.43816,0.8299 -1.99937,3.46284 -1.442801,-0.83304 a 13.499477,13.499477 0 0 1 -17.2971383,3.29283 13.499477,13.499477 0 0 1 -3.814236,-3.29127 l -1.44022204,0.83199 -1.99936136,-3.46335 1.44022236,-0.83148 a 13.499477,13.499477 0 0 1 0.87230004,-11.6866 13.499477,13.499477 0 0 1 9.6970823,-6.58772 z"
       id="path934-3-2" />
    <path
       inkscape:connector-curvature="0"
       style="color:#000000;display:inline;overflow:visible;visibility:visible;fill:none;fill-opacity:1;stroke:#ff0000;stroke-width:0.001;stroke-linecap:butt;stroke-linejoin:miter;stroke-miterlimit:4;stroke-dasharray:none;stroke-dashoffset:0;stroke-opacity:1;marker:none;enable-background:accumulate"
       d="m -58.314763,253.80012 c -1.314826,0.0186 -2.644595,0.18556 -3.974951,0.51729 l 0.100251,0.42426 c -1.481464,0.36935 -2.861271,0.93046 -4.136698,1.63607 l -0.216007,-0.38549 c -1.352644,0.74866 -2.580218,1.6665 -3.666443,2.71662 l 0.301272,0.30903 c -1.075851,1.04058 -2.005087,2.22132 -2.770889,3.49592 l -0.378274,-0.22378 c -0.78633,1.30864 -1.397197,2.71394 -1.821592,4.19095 l 0.417029,0.11577 c -0.408,1.41859 -0.631422,2.90437 -0.656291,4.41472 l -0.439767,-0.007 c -0.02438,1.49278 0.139017,3.01334 0.517282,4.53047 l 0.424262,-0.10802 c 0.369082,1.48043 0.923917,2.86972 1.628843,4.14444 l -0.378271,0.21601 c 0.750152,1.35512 1.671557,2.57878 2.724382,3.66643 l 0.316258,-0.30127 c 1.039416,1.07383 2.208318,2.01405 3.480923,2.77865 l -0.223757,0.3705 c 1.30617,0.7848 2.709269,1.39725 4.183209,1.8216 l 0.123506,-0.42477 c 1.416417,0.40773 2.891688,0.63833 4.399732,0.66404 v 0.43203 c 1.495769,0.0251 3.01785,-0.12985 4.538223,-0.50902 l -0.108003,-0.4248 c 1.481447,-0.36934 2.869032,-0.9304 4.14445,-1.63607 l 0.216007,0.38602 c 1.352711,-0.74938 2.588135,-1.66624 3.674199,-2.71712 l -0.309028,-0.32402 c 1.074709,-1.0399 2.005724,-2.19975 2.770892,-3.47319 l 0.378274,0.22377 c 0.784506,-1.30567 1.389521,-2.71757 1.813838,-4.19094 l -0.417028,-0.12353 c 0.409159,-1.42062 0.639125,-2.90197 0.664043,-4.41473 l 0.432017,0.0156 c 0.02527,-1.49579 -0.130455,-3.01786 -0.509532,-4.5382 l -0.424264,0.10024 c -0.369131,-1.48045 -0.923928,-2.86255 -1.628836,-4.13721 l 0.386019,-0.20825 c -0.749295,-1.35532 -1.672466,-2.58555 -2.724383,-3.67369 l -0.316259,0.30077 c -1.040633,-1.07589 -2.214155,-2.01287 -3.48868,-2.77862 l 0.223761,-0.37053 c -1.308634,-0.78633 -2.71394,-1.40451 -4.190958,-1.82883 l -0.123506,0.42426 c -1.417622,-0.40786 -2.890441,-0.63065 -4.399732,-0.65577 l 0.0078,-0.44029 c -0.186975,-0.003 -0.375443,-0.003 -0.563273,0 z m -1.744597,2.49756 h 3.998722 v 1.68461 a 13.499477,13.499477 0 0 1 4.744932,1.64589 13.499477,13.499477 0 0 1 5.801717,16.62898 l 1.438151,0.8299 -1.999361,3.46287 -1.442805,-0.83306 a 13.499477,13.499477 0 0 1 -17.297139,3.29282 13.499477,13.499477 0 0 1 -3.814237,-3.29124 l -1.440222,0.83196 -1.999362,-3.46335 1.440223,-0.83145 a 13.499477,13.499477 0 0 1 0.872298,-11.68662 13.499477,13.499477 0 0 1 9.697083,-6.58772 z"
       id="path934-3-7" />
    <path
       inkscape:connector-curvature="0"
       style="color:#000000;display:inline;overflow:visible;visibility:visible;fill:none;fill-opacity:1;stroke:#ff0000;stroke-width:0.001;stroke-linecap:butt;stroke-linejoin:miter;stroke-miterlimit:4;stroke-dasharray:none;stroke-dashoffset:0;stroke-opacity:1;marker:none;enable-background:accumulate"
       d="m 47.80111,253.80013 c -1.31482,0.0186 -2.64459,0.18556 -3.97495,0.51729 l 0.10025,0.42426 c -1.48146,0.36934 -2.86127,0.93046 -4.1367,1.63607 l -0.21601,-0.38549 c -1.35264,0.74865 -2.58021,1.6665 -3.66644,2.71662 l 0.30127,0.30903 c -1.07585,1.04058 -2.00508,2.22132 -2.77088,3.49592 l -0.37828,-0.22378 c -0.78633,1.30864 -1.39719,2.71394 -1.82159,4.19095 l 0.41703,0.11576 c -0.408,1.41859 -0.63142,2.90438 -0.65629,4.41472 l -0.43977,-0.007 c -0.0244,1.49279 0.13902,3.01334 0.51728,4.5305 l 0.42427,-0.10801 c 0.36908,1.48043 0.92391,2.86972 1.62884,4.14444 l -0.37827,0.21604 c 0.75015,1.35512 1.67155,2.57875 2.72438,3.66643 l 0.31626,-0.30127 c 1.03941,1.0738 2.20831,2.01402 3.48092,2.77865 l -0.22376,0.3705 c 1.30617,0.7848 2.70927,1.39723 4.18321,1.8216 l 0.12351,-0.4248 c 1.41641,0.40776 2.89169,0.63833 4.39973,0.66407 v 0.432 c 1.49577,0.0251 3.01785,-0.12982 4.53822,-0.50899 l -0.108,-0.4248 c 1.48145,-0.36937 2.86903,-0.9304 4.14445,-1.63607 l 0.21601,0.38602 c 1.35271,-0.74938 2.58813,-1.66624 3.67419,-2.71715 l -0.30902,-0.32399 c 1.0747,-1.03993 2.00572,-2.19975 2.77089,-3.4732 l 0.37827,0.22375 c 0.78451,-1.30567 1.38952,-2.71757 1.81384,-4.19094 l -0.41703,-0.1235 c 0.40916,-1.42064 0.63913,-2.90199 0.66405,-4.41475 l 0.43201,0.0156 c 0.0253,-1.49579 -0.13045,-3.01786 -0.50953,-4.5382 l -0.42426,0.10024 c -0.36914,-1.48045 -0.92393,-2.86255 -1.62884,-4.13721 l 0.38602,-0.20825 c -0.74929,-1.35532 -1.67246,-2.58555 -2.72438,-3.67369 l -0.31626,0.30077 c -1.04063,-1.07589 -2.21416,-2.01287 -3.48868,-2.77862 l 0.22376,-0.37053 c -1.30863,-0.78633 -2.71394,-1.40451 -4.19096,-1.82883 l -0.12351,0.42427 c -1.41762,-0.40787 -2.89044,-0.63066 -4.39973,-0.65578 l 0.008,-0.44029 c -0.18697,-0.003 -0.37544,-0.003 -0.56327,0 z m -1.7446,2.49755 h 3.99873 v 1.68462 a 13.499477,13.499477 0 0 1 4.74493,1.64589 13.499477,13.499477 0 0 1 5.80171,16.62897 l 1.43815,0.82993 -1.99936,3.46284 -1.4428,-0.83304 a 13.499477,13.499477 0 0 1 -17.29714,3.29283 13.499477,13.499477 0 0 1 -3.81424,-3.29127 l -1.44022,0.83199 -1.99936,-3.46335 1.44022,-0.83148 a 13.499477,13.499477 0 0 1 0.8723,-11.68661 13.499477,13.499477 0 0 1 9.69708,-6.58772 z"
       id="path934-3-0" />
    <path
       inkscape:connector-curvature="0"
       id="path874-6-1"
       style="color:#000000;display:inline;overflow:visible;visibility:visible;fill:none;fill-opacity:1;stroke:#ff0000;stroke-width:0.001;stroke-linecap:butt;stroke-linejoin:miter;stroke-miterlimit:4;stroke-dasharray:none;stroke-dashoffset:0;stroke-opacity:1;marker:none;enable-background:accumulate"
       d="m 202.01034,276.06728 1.73013,0.99994 -1.99937,3.46284 -1.73064,-0.99892 z m -24.51789,0 1.99937,3.46284 -1.73065,0.99994 -1.99937,-3.46284 z m 14.56603,-0.76533 v 0 l 4.50827,7.80932 c -4.37235,2.52371 -9.55905,2.34916 -13.63794,-0.003 l 4.51032,-7.7995 c 1.38079,0.79513 3.13933,0.84737 4.61935,-0.007 z m -2.30372,-5.60446 c 0.82825,0 1.49979,0.67154 1.49979,1.4998 0,0.82822 -0.67157,1.49978 -1.49979,1.49978 -0.82825,0 -1.49979,-0.67156 -1.4998,-1.49978 -1e-5,-0.82826 0.67155,-1.4998 1.4998,-1.4998 z m 6.81611,-10.19715 c 2.00652,1.15598 3.75071,2.83483 4.99195,4.98469 1.24121,2.14983 1.82264,4.49937 1.82057,6.81509 l -9.02065,0.002 c -2.6e-4,-0.78277 -0.19468,-1.57877 -0.61444,-2.30582 -0.41974,-0.72698 -1.01201,-1.29402 -1.68982,-1.68569 z m -13.6374,-0.006 4.50722,7.81295 c -1.48183,0.85564 -2.30461,2.40372 -2.30426,3.99923 l -9.0196,0.003 h -5.3e-4 c 0.002,-4.70851 2.44478,-9.29092 6.81716,-11.81529 z m 4.82761,-3.18638 h 3.99872 v 1.9983 h -3.99872 z m 0.15709,-2.50373 c -1.52287,0.16007 -3.02627,0.52569 -4.46587,1.07642 l 0.15916,0.40773 c -1.38808,0.53097 -2.71697,1.24059 -3.94653,2.1358 l -0.25218,-0.354 c -1.21619,0.88466 -2.34547,1.9343 -3.33675,3.15847 l 0.34313,0.27801 c -0.96523,1.19203 -1.73833,2.47247 -2.33526,3.80961 l -0.40514,-0.17828 c -0.63483,1.42152 -1.06505,2.90412 -1.30225,4.40696 l 0.43254,0.0708 c -0.23539,1.48616 -0.27048,2.99368 -0.11421,4.48034 l -0.43615,0.046 c 0.16046,1.52639 0.51838,3.02897 1.07125,4.47158 l 0.40773,-0.15918 c 0.53038,1.38487 1.24641,2.70203 2.13941,3.92896 l -0.35864,0.25838 c 0.88472,1.21615 1.93475,2.34549 3.15898,3.33674 h 5.3e-4 l 0.27802,-0.3431 c 1.19286,0.9659 2.48225,1.73711 3.82044,2.3342 l -0.17828,0.40516 c 1.41938,0.63305 2.89529,1.06649 4.3956,1.30327 l 0.0713,-0.43202 c 1.4864,0.23419 2.99426,0.26995 4.48087,0.11368 l 0.0455,0.43668 c 1.52636,-0.1605 3.02946,-0.51892 4.47207,-1.07179 l -0.15864,-0.4077 c 1.38538,-0.53179 2.71213,-1.24714 3.9398,-2.14097 l 0.25839,0.35916 c 1.21322,-0.8835 2.33617,-1.93588 3.32539,-3.15745 l -0.34314,-0.27852 c 0.96526,-1.19203 1.7435,-2.47808 2.34043,-3.81528 l 0.39841,0.17314 c 0.63423,-1.4222 1.06693,-2.90373 1.30331,-4.40699 l -0.43307,-0.0708 c 0.23257,-1.48431 0.27593,-2.99085 0.11988,-4.47519 l 0.43667,-0.0455 c -0.16015,-1.52344 -0.51919,-3.02108 -1.07021,-4.46121 l -0.41807,0.1607 c -0.52959,-1.38388 -1.23275,-2.70978 -2.12442,-3.93618 l 0.34779,-0.25736 c -0.88468,-1.21624 -1.93481,-2.34538 -3.15899,-3.33674 l -0.27802,0.34363 c -1.1928,-0.96593 -2.47656,-1.74337 -3.81474,-2.34041 l 0.1778,-0.40513 c -1.42007,-0.63269 -2.9061,-1.06615 -4.40698,-1.30226 l -0.0703,0.4434 c -1.4854,-0.2345 -2.98516,-0.28324 -4.47053,-0.12714 z" />
    <path
       inkscape:connector-curvature="0"
       id="path874-6-8"
       style="color:#000000;display:inline;overflow:visible;visibility:visible;fill:none;fill-opacity:1;stroke:#ff0000;stroke-width:0.001;stroke-linecap:butt;stroke-linejoin:miter;stroke-miterlimit:4;stroke-dasharray:none;stroke-dashoffset:0;stroke-opacity:1;marker:none;enable-background:accumulate"
       d="m 237.56179,276.06728 1.73014,0.99994 -1.99935,3.46284 -1.73067,-0.99892 z m -24.51796,0 1.99935,3.46284 -1.73064,0.99994 -1.99937,-3.46284 z m 14.56611,-0.76533 v 0 l 4.50823,7.80932 c -4.37232,2.52371 -9.55905,2.34916 -13.63797,-0.003 l 4.51035,-7.7995 c 1.38078,0.79513 3.13936,0.84737 4.61939,-0.007 z m -2.30376,-5.50109 c 0.82826,0 1.49982,0.67155 1.49982,1.4998 0,0.82824 -0.67156,1.49979 -1.49982,1.49979 -0.82827,0 -1.49981,-0.67155 -1.49981,-1.49979 0,-0.82825 0.67154,-1.4998 1.49981,-1.4998 z m 6.81612,-10.30051 c 2.00657,1.15598 3.75076,2.83487 4.99197,4.98469 1.24122,2.14983 1.82264,4.49937 1.8206,6.81509 l -9.02068,0.003 c 0,-0.78277 -0.1947,-1.57875 -0.61446,-2.30581 -0.41974,-0.72698 -1.01201,-1.29402 -1.68979,-1.68569 z m -13.63744,-0.006 4.50723,7.81297 c -1.48183,0.85564 -2.3046,2.40371 -2.30426,3.99923 l -9.01965,0.003 v 0 c 0.003,-4.7085 2.44481,-9.29094 6.81721,-11.8153 z m 4.82764,-3.18637 h 3.99872 v 1.99833 h -3.99872 z m 0.15708,-2.50374 c -1.52286,0.16008 -3.02628,0.5257 -4.46588,1.07643 l 0.15915,0.40772 c -1.38808,0.53098 -2.71698,1.2406 -3.94655,2.1358 l -0.25217,-0.35399 c -1.21619,0.88466 -2.34548,1.9343 -3.33674,3.15846 l 0.34311,0.27802 c -0.96523,1.19202 -1.73834,2.47247 -2.33527,3.80961 l -0.40513,-0.17828 c -0.63484,1.42152 -1.06505,2.90412 -1.30225,4.40697 l 0.43251,0.0708 c -0.2354,1.48615 -0.27048,2.99367 -0.11422,4.48036 l -0.43614,0.046 c 0.16047,1.52637 0.5184,3.02894 1.07127,4.47155 l 0.40773,-0.15917 c 0.53038,1.38486 1.24642,2.70202 2.13942,3.92895 l -0.35864,0.25838 c 0.88471,1.21615 1.93476,2.34549 3.15899,3.33674 v 0 l 0.27802,-0.3431 c 1.19288,0.96591 2.48227,1.73711 3.82045,2.33421 l -0.17827,0.40515 c 1.41941,0.63306 2.89531,1.06649 4.3956,1.30328 l 0.0713,-0.43203 c 1.4864,0.23419 2.99426,0.26995 4.48091,0.11368 l 0.0455,0.43668 c 1.52633,-0.1605 3.02945,-0.51892 4.47209,-1.07179 l -0.15867,-0.4077 c 1.38541,-0.53179 2.71217,-1.24714 3.93986,-2.14097 l 0.25837,0.35916 c 1.21322,-0.8835 2.33619,-1.93588 3.32536,-3.15745 l -0.34311,-0.27852 c 0.96525,-1.19202 1.74355,-2.47808 2.34048,-3.81528 l 0.39841,0.17314 c 0.63423,-1.4222 1.06693,-2.90372 1.30325,-4.40697 l -0.43304,-0.0708 c 0.23259,-1.4843 0.27591,-2.99085 0.11991,-4.47517 l 0.43667,-0.0455 c -0.16016,-1.52344 -0.51919,-3.02109 -1.07022,-4.46122 l -0.41809,0.1607 c -0.52961,-1.38388 -1.23277,-2.70979 -2.12444,-3.93618 l 0.3478,-0.25736 c -0.88472,-1.21624 -1.93485,-2.34538 -3.15902,-3.33674 l -0.278,0.34366 c -1.19282,-0.96596 -2.47661,-1.74337 -3.81479,-2.34044 l 0.17775,-0.40513 c -1.42005,-0.63266 -2.90611,-1.06615 -4.40696,-1.30226 l -0.0703,0.4434 c -1.4854,-0.2345 -2.98516,-0.28324 -4.47053,-0.12714 z" />
    <path
       inkscape:connector-curvature="0"
       id="path874-6-1-7"
       style="color:#000000;display:inline;overflow:visible;visibility:visible;fill:none;fill-opacity:1;stroke:#ff0000;stroke-width:0.001;stroke-linecap:butt;stroke-linejoin:miter;stroke-miterlimit:4;stroke-dasharray:none;stroke-dashoffset:0;stroke-opacity:1;marker:none;enable-background:accumulate"
       d="m 272.91462,276.06728 1.73011,0.99994 -1.99935,3.46284 -1.73064,-0.99892 z m -24.51798,0 1.99935,3.46284 -1.73064,0.99994 -1.99938,-3.46284 z m 14.56608,-0.76533 v 0 l 4.50826,7.80932 c -4.37235,2.52371 -9.55908,2.34916 -13.63798,-0.003 l 4.51033,-7.7995 c 1.38081,0.79513 3.13936,0.84737 4.61939,-0.007 z m -2.30376,-5.50109 c 0.82828,0 1.49985,0.67153 1.49982,1.4998 0,0.82821 -0.67154,1.49979 -1.49982,1.49979 -0.82825,0 -1.49981,-0.67158 -1.49981,-1.49979 0,-0.82827 0.67156,-1.4998 1.49981,-1.4998 z m 6.81615,-10.30051 c 2.00654,1.15598 3.75073,2.83484 4.992,4.98469 1.24121,2.14983 1.8226,4.49937 1.82054,6.81509 l -9.02068,0.003 c -2.4e-4,-0.78277 -0.1947,-1.57878 -0.61441,-2.30581 -0.41976,-0.72698 -1.01203,-1.29402 -1.68984,-1.68569 z m -13.63748,-0.006 4.50726,7.81297 c -1.4818,0.85564 -2.3046,2.40371 -2.30426,3.99923 l -9.01961,0.003 v 0 c 0.003,-4.70852 2.44477,-9.29094 6.81714,-11.8153 z m 4.82767,-3.18637 h 3.99876 v 1.9983 h -3.99876 z m 0.15708,-2.50374 c -1.52286,0.16008 -3.02627,0.5257 -4.46587,1.07643 l 0.15917,0.40772 c -1.38811,0.53098 -2.71703,1.2406 -3.94658,2.1358 l -0.25217,-0.35399 c -1.21621,0.88466 -2.34545,1.9343 -3.33677,3.15846 l 0.34317,0.27802 c -0.96528,1.19202 -1.73839,2.47247 -2.33532,3.80961 l -0.40513,-0.17828 c -0.63481,1.42152 -1.06505,2.90412 -1.30225,4.40697 l 0.43254,0.0708 c -0.23538,1.48615 -0.27049,2.99367 -0.11422,4.48033 l -0.43614,0.046 c 0.16047,1.52637 0.51837,3.02894 1.07124,4.47155 l 0.40773,-0.15917 c 0.53038,1.38486 1.24642,2.70202 2.13944,3.92895 l -0.35867,0.25838 c 0.88477,1.21615 1.93477,2.34549 3.15902,3.33674 v 0 l 0.27805,-0.3431 c 1.19288,0.96591 2.48227,1.73711 3.82046,2.33421 l -0.17828,0.40515 c 1.41941,0.63306 2.89531,1.0665 4.3956,1.30328 l 0.0713,-0.43203 c 1.48643,0.23419 2.99431,0.26995 4.4809,0.11368 l 0.0455,0.43669 c 1.52636,-0.16051 3.02945,-0.51893 4.4721,-1.0718 l -0.15868,-0.4077 c 1.38539,-0.53179 2.71214,-1.24714 3.93986,-2.14096 l 0.25837,0.35915 c 1.21322,-0.88349 2.33616,-1.93588 3.32539,-3.15745 l -0.34311,-0.27852 c 0.96522,-1.19202 1.74349,-2.47808 2.34042,-3.81528 l 0.39841,0.17315 c 0.63426,-1.42221 1.06696,-2.90373 1.30331,-4.40698 l -0.43307,-0.0708 c 0.23257,-1.48432 0.27593,-2.99085 0.11988,-4.47517 l 0.4367,-0.0455 c -0.16018,-1.52344 -0.51922,-3.02109 -1.07021,-4.46121 l -0.4181,0.16069 c -0.5296,-1.38388 -1.23276,-2.70979 -2.12443,-3.93618 l 0.34777,-0.25736 c -0.88471,-1.21624 -1.93482,-2.34538 -3.15899,-3.33674 l -0.27803,0.34363 c -1.19279,-0.96593 -2.47655,-1.74337 -3.81476,-2.34041 l 0.17777,-0.40513 c -1.42009,-0.63269 -2.9061,-1.06615 -4.40695,-1.30226 l -0.0703,0.4434 c -1.4854,-0.2345 -2.98519,-0.28324 -4.47056,-0.12714 z" />
  </g>
</svg>
